<svg width="214" height="249" viewBox="0 0 214 249" fill="none" xmlns="http://www.w3.org/2000/svg">
<path fill-rule="evenodd" clip-rule="evenodd" d="M47.5362 135.901C47.5458 135.889 47.5555 135.878 47.5651 135.866Z" fill="#021857"/>
<path d="M54.8422 166.472C67.5613 156.521 68.6088 156.371 73.0979 163.329L76.0907 167.968L99.4342 168.193L122.852 168.342L125.92 163.479C130.409 156.296 131.382 156.446 144.4 166.547L154.65 174.403L154.875 165.35L155.099 156.371L149.638 150.012C145.747 145.523 144.101 144.026 143.951 144.999C143.054 149.862 142.23 151.134 139.836 151.134C137.741 151.134 135.572 149.263 121.506 135.272L105.644 119.336L93.8976 131.157C83.1237 141.931 81.9266 142.904 79.5324 142.904C77.2878 142.904 76.39 142.38 74.4447 139.911C70.0313 134.675 70.1052 134.599 87.378 116.878L87.3883 116.867C101.679 102.202 102.951 101.005 105.42 101.005C107.814 101.005 109.011 102.053 120.757 114.099C127.79 121.356 133.701 127.117 133.851 126.893C134.749 126.07 135.646 113.949 135.646 103.175C135.646 90.9796 134.3 79.5324 131.756 69.4318C126.967 50.5027 116.942 31.6483 105.27 19.6025L99.6586 13.8415L94.4213 19.3781C84.3956 29.9275 75.6418 45.1157 70.1052 61.4262C64.1945 79.2331 62.3989 98.5363 64.6434 122.029L65.4664 131.382L63.5211 133.626C63.0893 134.12 62.0341 135.351 60.6075 137.016C60.606 137.018 60.5943 137.031 60.5928 137.033C58.561 139.404 55.7769 142.653 52.9717 145.897L44.2927 155.997V165.2C44.2927 170.213 44.4424 174.328 44.592 174.328C44.6668 174.328 49.3056 170.811 54.8422 166.472Z" fill="#021857"/>
<path d="M54.8422 166.472C67.5613 156.521 68.6088 156.371 73.0979 163.329L76.0907 167.968L99.4342 168.193L122.852 168.342L125.92 163.479C130.409 156.296 131.382 156.446 144.4 166.547L154.65 174.403L154.875 165.35L155.099 156.371L149.638 150.012C145.747 145.523 144.101 144.026 143.951 144.999C143.054 149.862 142.23 151.134 139.836 151.134C137.741 151.134 135.572 149.263 121.506 135.272L105.644 119.336L93.8976 131.157C83.1237 141.931 81.9266 142.904 79.5324 142.904C77.2878 142.904 76.39 142.38 74.4447 139.911C70.0313 134.675 70.1052 134.599 87.378 116.878L87.3883 116.867C101.679 102.202 102.951 101.005 105.42 101.005C107.814 101.005 109.011 102.053 120.757 114.099C127.79 121.356 133.701 127.117 133.851 126.893C134.749 126.07 135.646 113.949 135.646 103.175C135.646 90.9796 134.3 79.5324 131.756 69.4318C126.967 50.5027 116.942 31.6483 105.27 19.6025L99.6586 13.8415L94.4213 19.3781C84.3956 29.9275 75.6418 45.1157 70.1052 61.4262C64.1945 79.2331 62.3989 98.5363 64.6434 122.029L65.4664 131.382L63.5211 133.626C63.0895 134.12 62.0331 135.352 60.6075 137.016L60.5928 137.033C58.5606 139.405 55.779 142.651 52.9717 145.897L44.2927 155.997V165.2C44.2927 170.213 44.4424 174.328 44.592 174.328C44.6668 174.328 49.3056 170.811 54.8422 166.472Z" fill="#021857"/>
<path fill-rule="evenodd" clip-rule="evenodd" d="M47.5651 135.866C46.8018 136.792 45.9618 137.812 45.0409 138.938C40.7762 144.176 36.5864 149.712 35.8382 151.209C34.6411 153.678 34.4915 155.773 34.7159 172.382C34.8656 187.496 35.1648 190.938 35.9878 191.536C37.4842 192.434 38.3072 191.985 52.8221 181.211L65.3916 171.934L68.1599 174.627C70.7786 177.246 71.1527 177.321 76.3151 177.321C81.7021 177.321 82.5251 177.695 80.8043 179.415C80.1309 180.089 84.1711 180.313 99.2097 180.313C115.296 180.313 118.438 180.164 117.69 179.341C116.418 177.695 117.465 177.321 123.301 177.321C128.613 177.321 128.763 177.246 130.933 174.627C132.504 172.682 133.477 172.083 134.225 172.532C134.823 172.906 141.033 177.321 148.066 182.408C155.024 187.421 161.459 191.536 162.282 191.536C163.329 191.536 163.928 190.938 164.078 189.89C164.227 188.917 164.227 179.79 164.003 169.465L163.629 150.76L154.501 139.313C149.413 133.028 144.999 127.267 144.55 126.444C143.951 125.396 144.026 122.553 144.55 117.017C144.999 112.602 145.298 105.42 145.223 100.931L145.148 92.8501L150.236 87.2387C153.079 84.1711 165.349 71.1527 165.349 71.1527C165.348 71.003 190.937 44.1431 191.087 44.1431C191.312 44.1431 194.005 46.6869 196.998 49.7545C199.991 52.8221 202.983 55.3659 203.732 55.3659C205.153 55.3659 206.874 49.0063 210.016 31.7232C211.064 25.8873 212.261 19.9766 212.635 18.6299C213.757 14.8889 213.608 13.9911 212.111 14.5897C211.363 14.8141 206.425 16.2357 201.038 17.5824C191.162 20.1263 176.123 24.9147 173.505 26.2614C172.233 27.0096 172.457 27.3837 176.049 30.5261C177.284 31.6338 178.786 32.9598 180.114 34.1312L180.121 34.1378C181.122 35.0209 182.022 35.8156 182.633 36.3619L185.176 38.6813L165.499 59.5558C154.725 71.003 145.448 80.505 144.924 80.6546C144.251 80.8043 143.652 79.1583 143.054 75.4173C140.36 58.1342 132.729 38.9058 122.778 23.8672C116.942 15.263 102.202 0 99.6586 0C97.1148 0 83.1985 14.3652 77.2878 23.0442C65.0923 41.0755 56.4134 65.6909 54.3932 88.361L53.9443 94.122L26.9348 121.88L0 149.712L1.72083 151.583C2.61866 152.555 4.11503 153.379 5.01286 153.379C6.50923 153.379 12.5696 147.468 42.3474 116.867C47.6596 111.48 52.3731 106.991 52.8969 106.991C53.4954 106.991 54.0192 110.133 54.4681 116.418C54.5301 117.253 54.5922 118.013 54.6491 118.71C54.9061 121.857 55.0593 123.734 54.6399 125.47C54.0223 128.027 52.163 130.284 47.5651 135.866ZM54.8422 166.472C67.5613 156.521 68.6088 156.371 73.0979 163.329L76.0907 167.968L99.4342 168.193L122.852 168.342L125.92 163.479C130.409 156.296 131.382 156.446 144.4 166.547L154.65 174.403L154.875 165.35L155.099 156.371L149.638 150.012C145.747 145.523 144.101 144.026 143.951 144.999C143.054 149.862 142.23 151.134 139.836 151.134C137.741 151.134 135.572 149.263 121.506 135.272L105.644 119.336L93.8976 131.157C83.1237 141.931 81.9266 142.904 79.5324 142.904C77.2878 142.904 76.39 142.38 74.4447 139.911C70.0313 134.675 70.1052 134.599 87.378 116.878L87.3883 116.867C101.679 102.202 102.951 101.005 105.42 101.005C107.814 101.005 109.011 102.053 120.757 114.099C127.79 121.356 133.701 127.117 133.851 126.893C134.749 126.07 135.646 113.949 135.646 103.175C135.646 90.9796 134.3 79.5324 131.756 69.4318C126.967 50.5027 116.942 31.6483 105.27 19.6025L99.6586 13.8415L94.4213 19.3781C84.3956 29.9275 75.6418 45.1157 70.1052 61.4262C64.1945 79.2331 62.3989 98.5363 64.6434 122.029L65.4664 131.382L63.5211 133.626C63.0895 134.12 62.0331 135.352 60.6075 137.016L60.5928 137.033C58.561 139.404 55.7769 142.653 52.9717 145.897L44.2927 155.997V165.2C44.2927 170.213 44.4424 174.328 44.592 174.328C44.6668 174.328 49.3056 170.811 54.8422 166.472Z" fill="#021857"/>
<path d="M90.9797 85.5926C83.1985 82.8243 78.9338 74.4446 79.9065 63.7455C80.8791 53.4205 86.715 47.8839 97.4889 47.2854C104.821 46.8364 109.086 47.9587 113.051 51.3256C117.615 55.291 119.112 59.1067 119.112 66.9627C119.112 72.1252 118.737 74.2949 117.54 76.8388C115.67 80.8042 111.106 84.7696 107.215 85.8918C103.325 87.0889 94.7206 86.9393 90.9797 85.5926ZM102.726 72.4993C105.569 70.4792 107.141 67.4116 106.392 65.3915C105.644 63.521 101.454 59.8549 99.9579 59.8549C97.863 59.8549 94.4213 62.1743 93.299 64.344C91.8775 67.0375 92.6257 69.3569 95.9177 72.0504C98.7608 74.4446 99.8831 74.5194 102.726 72.4993Z" fill="#021857"/>
<path d="M42.0482 167.07V153.753L50.7271 143.652C55.5155 138.115 60.2291 132.654 61.2018 131.457C62.9974 129.511 62.9974 129.287 62.2492 122.852C61.2018 113.425 61.3514 90.6055 62.6233 82.3006C64.1945 71.3022 65.0175 67.7858 67.8606 59.1816C73.6217 42.1229 82.3755 27.3088 93.3738 15.8615L99.6586 9.35229L106.317 16.1608C113.799 23.7923 120.608 33.6684 125.471 43.7689C134.225 62.2492 137.891 79.0834 137.966 102.128C138.041 114.622 136.769 131.457 135.646 132.654C135.347 132.953 128.389 126.444 120.234 118.064L105.42 102.876L89.8574 118.887L74.295 134.823L76.6892 137.741C78.036 139.313 79.3079 140.659 79.5324 140.659C79.7568 140.659 85.6675 134.823 92.7753 127.79L105.644 114.847L122.778 131.98L139.911 149.039L140.659 146.57C141.108 145.148 141.707 142.754 142.006 141.258C142.23 139.687 142.829 138.415 143.353 138.49C143.802 138.49 147.094 142.006 150.76 146.271L157.269 154.052V166.846C157.269 173.804 157.045 179.565 156.745 179.565C156.371 179.565 150.685 175.375 144.026 170.213C137.367 165.05 131.756 160.86 131.606 160.86C131.382 160.86 129.811 163.03 128.165 165.724L125.097 170.587L99.4342 170.437L73.8461 170.213L71.3771 166.472C70.0304 164.452 68.6088 162.207 68.2347 161.683C67.7858 160.785 66.8132 161.234 63.3715 163.928C60.9773 165.724 55.2911 170.213 50.5775 173.804L42.0482 180.388V167.07ZM104.971 83.6473C106.617 83.1984 109.235 81.7021 110.807 80.2805C119.037 73.3223 118.962 60.6032 110.807 53.5702C100.482 44.8164 83.8719 50.9515 82.4503 64.0448C80.9539 77.6618 92.2516 87.4631 104.971 83.6473Z" fill="#1748FF"/>
<path d="M93.8228 207.398C89.7826 202.684 88.4358 200.814 88.4358 199.991C88.4358 199.467 88.1365 199.018 87.7625 199.018C86.1164 199.018 84.6949 192.808 84.6949 185.551V178.069H99.7335H114.847L114.398 185.027C113.949 192.958 112.827 196.624 108.936 202.534C105.569 207.473 102.577 209.493 98.5364 209.493C96.217 209.493 95.1695 209.044 93.8228 207.398Z" fill="#FF8019"/>
<path d="M93.2242 244.657C79.1583 233.435 71.9756 218.92 71.9756 201.337C71.9756 191.386 76.2403 179.64 79.8316 179.565C80.2805 179.565 80.5798 182.857 80.5798 187.945C80.5798 201.637 84.1711 210.091 94.4213 220.416L99.1349 225.13L102.128 222.81C112.902 214.206 119.86 198.345 118.663 184.952C118.214 179.79 118.214 179.341 119.411 179.79C120.159 180.089 120.832 180.313 120.982 180.313C121.132 180.313 122.329 182.932 123.675 186.149C125.845 191.162 126.144 192.958 126.444 199.841C126.967 213.533 123.601 224.307 115.445 235.081C111.031 240.916 102.053 248.398 99.5838 248.398C98.6111 248.324 95.768 246.678 93.2242 244.657Z" fill="#FD643D"/>
<path d="M95.3191 225.803C86.6401 218.097 81.0287 209.193 79.0834 200.065C77.9612 194.678 77.5871 181.959 78.5597 180.687C79.5324 179.266 82.4503 178.069 84.6949 178.069H86.9394L87.0891 183.53C87.1639 186.448 87.2387 189.516 87.1639 190.264C87.1639 190.938 87.538 191.536 87.9121 191.536C88.2862 191.536 88.4358 192.06 88.1365 192.658C87.9121 193.257 88.0617 193.781 88.5106 193.781C88.9595 193.781 89.0343 194.155 88.8099 194.529C88.5854 194.978 88.7351 195.277 89.184 195.277C89.6329 195.277 89.7825 195.651 89.5581 196.025C89.3336 196.474 89.4833 196.773 89.8573 196.773C90.3063 196.773 90.6804 197.222 90.6804 197.746C90.6804 198.719 92.7005 201.412 96.1421 205.228L98.237 207.547L100.931 206.126C104.073 204.405 108.786 197.971 110.507 193.032C112.228 188.094 112.902 179.565 111.555 179.565C110.732 179.565 110.732 179.415 111.63 178.817C113.276 177.769 115.595 177.919 118.139 179.191C119.86 180.089 120.533 180.987 120.907 183.156C122.703 194.379 119.111 207.473 111.405 217.498C108.412 221.389 100.482 228.945 99.3593 228.945C99.1349 228.945 97.3392 227.524 95.3191 225.803Z" fill="#FEB43A"/>
<path d="M93.2242 73.8459C89.9321 70.8531 89.0343 66.0647 91.0544 62.1741C92.8501 58.6577 98.1622 56.4131 101.828 57.5354C112.902 60.8274 110.881 76.3149 99.3593 76.3149C96.5162 76.3149 95.4687 75.866 93.2242 73.8459Z" fill="#06183C"/>
</svg>
